<svg width="40" height="40" viewBox="0 0 40 40" fill="none" xmlns="http://www.w3.org/2000/svg">
<g id="Logo " clip-path="url(#clip0_3312_796)">
<rect id="Rectangle 1" width="40" height="40" rx="8.15126" fill="white"/>
<path id="Union" fill-rule="evenodd" clip-rule="evenodd" d="M8.13851 9.16467C8.84193 8.85479 9.33301 8.15149 9.33301 7.3335C9.33301 6.22893 8.43758 5.3335 7.33301 5.3335C6.22844 5.3335 5.33301 6.22893 5.33301 7.3335C5.33301 8.25528 5.9566 9.03141 6.80494 9.26304C7.73983 15.7125 13.2912 20.6668 19.9997 20.6668C26.7082 20.6668 32.2595 15.7125 33.1944 9.26306C34.0428 9.03145 34.6664 8.2553 34.6664 7.3335C34.6664 6.22893 33.771 5.3335 32.6664 5.3335C31.5618 5.3335 30.6664 6.22893 30.6664 7.3335C30.6664 8.15147 31.1574 8.85476 31.8608 9.16464C30.9792 14.9229 26.0045 19.3335 19.9997 19.3335C13.9949 19.3335 9.02019 14.9229 8.13851 9.16467Z" fill="#DF4300"/>
</g>
<defs>
<clipPath id="clip0_3312_796">
<rect width="40" height="40" fill="white"/>
</clipPath>
</defs>
</svg>
