<svg width="20" height="20" viewBox="0 0 20 20" fill="none" xmlns="http://www.w3.org/2000/svg">
<g id="united-states 1">
<path id="Vector" d="M18.5021 3.44824H1.49785C0.670586 3.44824 0 4.11883 0 4.94609V15.0539C0 15.8811 0.670586 16.5517 1.49785 16.5517H18.5021C19.3294 16.5517 20 15.8811 20 15.0539V4.94609C20 4.11883 19.3294 3.44824 18.5021 3.44824Z" fill="#F5F5F5"/>
<g id="Group">
<path id="Vector_2" d="M0.0824916 4.45621H19.9177C19.7147 3.86961 19.1578 3.44824 18.5023 3.44824H1.49796C0.842335 3.44824 0.285499 3.86961 0.0824916 4.45621Z" fill="#FF4B55"/>
<path id="Vector_3" d="M20 7.47998H0V8.48791H20V7.47998Z" fill="#FF4B55"/>
<path id="Vector_4" d="M20 5.46411H0V6.47204H20V5.46411Z" fill="#FF4B55"/>
<path id="Vector_5" d="M0 10.159C0 10.3494 0.154414 10.5038 0.344844 10.5038H20V9.49585H0V10.159Z" fill="#FF4B55"/>
<path id="Vector_6" d="M20 13.5281H0V14.536H20V13.5281Z" fill="#FF4B55"/>
<path id="Vector_7" d="M19.9177 15.5437H0.0824916C0.285499 16.1303 0.842374 16.5517 1.49796 16.5517H18.5023C19.1579 16.5517 19.7147 16.1303 19.9177 15.5437Z" fill="#FF4B55"/>
<path id="Vector_8" d="M20 11.512H0V12.5199H20V11.512Z" fill="#FF4B55"/>
</g>
<path id="Vector_9" d="M0.344844 10.504H8.96555C9.15598 10.504 9.31039 10.3496 9.31039 10.1591V3.79309C9.31039 3.60262 9.15598 3.44824 8.96555 3.44824H1.49785C0.670586 3.44828 0 4.11887 0 4.94613V10.1591C0 10.3496 0.154414 10.504 0.344844 10.504Z" fill="#41479B"/>
<g id="Group_2">
<path id="Vector_10" d="M0.968512 4.24L1.04484 4.46891L1.28613 4.47075C1.31738 4.47102 1.33031 4.51086 1.30519 4.52942L1.11109 4.67274L1.1839 4.90278C1.19335 4.93254 1.15941 4.95723 1.13398 4.93903L0.937692 4.79875L0.741403 4.93907C0.715973 4.95727 0.682106 4.93258 0.691481 4.90282L0.764294 4.67278L0.570192 4.52946C0.545075 4.51086 0.558005 4.47102 0.589255 4.47079L0.830543 4.46895L0.906871 4.24004C0.916715 4.21036 0.95859 4.21036 0.968512 4.24Z" fill="#F5F5F5"/>
<path id="Vector_11" d="M0.968512 5.43724L1.04484 5.66615L1.28613 5.66799C1.31738 5.66826 1.33031 5.70806 1.30519 5.72666L1.11109 5.87002L1.1839 6.10006C1.19335 6.12983 1.15941 6.15451 1.13398 6.13631L0.937692 5.99604L0.741403 6.13635C0.715973 6.15451 0.682106 6.12987 0.691481 6.1001L0.764294 5.87006L0.570192 5.7267C0.545075 5.7081 0.558005 5.6683 0.589255 5.66803L0.830543 5.66619L0.906871 5.43728C0.916715 5.40763 0.95859 5.40763 0.968512 5.43724Z" fill="#F5F5F5"/>
<path id="Vector_12" d="M0.968512 6.63454L1.04484 6.86344L1.28613 6.86528C1.31738 6.86555 1.33031 6.90536 1.30519 6.92395L1.11109 7.06731L1.1839 7.29735C1.19335 7.32712 1.15941 7.3518 1.13398 7.3336L0.937692 7.19333L0.741403 7.33364C0.715973 7.3518 0.682106 7.32719 0.691481 7.29739L0.764294 7.06735L0.570192 6.92399C0.545075 6.9054 0.558005 6.86559 0.589255 6.86532L0.830543 6.86348L0.906871 6.63458C0.916715 6.60489 0.95859 6.60489 0.968512 6.63454Z" fill="#F5F5F5"/>
<path id="Vector_13" d="M0.968512 7.83205L1.04484 8.06095L1.28613 8.06279C1.31738 8.06306 1.33031 8.1029 1.30519 8.12146L1.11109 8.26481L1.1839 8.49485C1.19335 8.52462 1.15941 8.5493 1.13398 8.5311L0.937692 8.39083L0.741403 8.53114C0.715973 8.5493 0.682106 8.52466 0.691481 8.49489L0.764294 8.26485L0.570192 8.1215C0.545075 8.10298 0.558005 8.0631 0.589255 8.06282L0.830543 8.06099L0.906871 7.83208C0.916715 7.8024 0.95859 7.8024 0.968512 7.83205Z" fill="#F5F5F5"/>
<path id="Vector_14" d="M0.968512 9.02953L1.04484 9.25843L1.28613 9.26027C1.31738 9.26054 1.33031 9.30035 1.30519 9.31894L1.11109 9.4623L1.1839 9.69234C1.19335 9.7221 1.15941 9.74679 1.13398 9.72859L0.937692 9.58831L0.741403 9.72863C0.715973 9.74679 0.682106 9.72214 0.691481 9.69238L0.764294 9.46234L0.570192 9.31898C0.545075 9.30039 0.558005 9.26058 0.589255 9.26031L0.830543 9.25847L0.906871 9.02957C0.916715 8.99992 0.95859 8.99992 0.968512 9.02953Z" fill="#F5F5F5"/>
<path id="Vector_15" d="M1.89795 4.82689L1.97428 5.0558L2.21557 5.05764C2.24682 5.05791 2.25975 5.09776 2.23463 5.11631L2.04053 5.25967L2.11334 5.48971C2.1228 5.51948 2.08885 5.54417 2.06342 5.52596L1.86713 5.38565L1.67084 5.52596C1.64541 5.54413 1.61155 5.51948 1.62092 5.48971L1.69374 5.25967L1.49963 5.11631C1.47452 5.09772 1.48745 5.05791 1.5187 5.05764L1.75998 5.0558L1.83631 4.82689C1.84616 4.79729 1.88807 4.79729 1.89795 4.82689Z" fill="#F5F5F5"/>
<path id="Vector_16" d="M1.89795 6.02419L1.97428 6.2531L2.21557 6.25493C2.24682 6.25521 2.25975 6.29505 2.23463 6.3136L2.04053 6.45696L2.11334 6.687C2.1228 6.71677 2.08885 6.74146 2.06342 6.72325L1.86713 6.58294L1.67084 6.72325C1.64541 6.74142 1.61155 6.71681 1.62092 6.687L1.69374 6.45696L1.49963 6.3136C1.47452 6.29509 1.48745 6.25521 1.5187 6.25493L1.75998 6.2531L1.83631 6.02419C1.84616 5.99454 1.88807 5.99454 1.89795 6.02419Z" fill="#F5F5F5"/>
<path id="Vector_17" d="M1.89795 7.2217L1.97428 7.45061L2.21557 7.45244C2.24682 7.45272 2.25975 7.49252 2.23463 7.51111L2.04053 7.65447L2.11334 7.88451C2.1228 7.91428 2.08885 7.93897 2.06342 7.92076L1.86713 7.78045L1.67084 7.92076C1.64541 7.93893 1.61155 7.91428 1.62092 7.88451L1.69374 7.65447L1.49963 7.51111C1.47452 7.49252 1.48745 7.45272 1.5187 7.45244L1.75998 7.45061L1.83631 7.2217C1.84616 7.19205 1.88807 7.19205 1.89795 7.2217Z" fill="#F5F5F5"/>
<path id="Vector_18" d="M1.89795 8.41918L1.97428 8.64809L2.21557 8.64992C2.24682 8.65019 2.25975 8.69 2.23463 8.70859L2.04053 8.85195L2.11334 9.08199C2.1228 9.11176 2.08885 9.13644 2.06342 9.11824L1.86713 8.97793L1.67084 9.11824C1.64541 9.13644 1.61155 9.11176 1.62092 9.08199L1.69374 8.85195L1.49963 8.70859C1.47452 8.69 1.48745 8.65019 1.5187 8.64992L1.75998 8.64809L1.83631 8.41918C1.84616 8.38957 1.88807 8.38957 1.89795 8.41918Z" fill="#F5F5F5"/>
<path id="Vector_19" d="M2.8274 4.23977L2.90373 4.46867L3.14501 4.47051C3.17626 4.47078 3.18919 4.51063 3.16408 4.52918L2.96998 4.6725L3.04279 4.90254C3.05224 4.93231 3.0183 4.95699 2.99287 4.93879L2.79658 4.79848L2.60029 4.93879C2.57486 4.95699 2.54099 4.93231 2.55037 4.90254L2.62318 4.6725L2.42908 4.52918C2.40396 4.51059 2.41689 4.47074 2.44814 4.47051L2.68943 4.46867L2.76576 4.23977C2.7756 4.21012 2.81752 4.21012 2.8274 4.23977Z" fill="#F5F5F5"/>
<path id="Vector_20" d="M2.8274 5.43725L2.90373 5.66615L3.14501 5.66799C3.17626 5.66826 3.18919 5.70807 3.16408 5.72666L2.96998 5.87002L3.04279 6.10006C3.05224 6.12982 3.0183 6.15451 2.99287 6.13631L2.79658 5.99599L2.60029 6.13631C2.57486 6.15447 2.54099 6.12982 2.55037 6.10006L2.62318 5.87002L2.42908 5.72666C2.40396 5.70807 2.41689 5.66826 2.44814 5.66799L2.68943 5.66615L2.76576 5.43725C2.7756 5.40764 2.81752 5.40764 2.8274 5.43725Z" fill="#F5F5F5"/>
<path id="Vector_21" d="M2.8274 6.63454L2.90373 6.86345L3.14501 6.86528C3.17626 6.86556 3.18919 6.90536 3.16408 6.92396L2.96998 7.06731L3.04279 7.29735C3.05224 7.32712 3.0183 7.35181 2.99287 7.3336L2.79658 7.19329L2.60029 7.3336C2.57486 7.35177 2.54099 7.32716 2.55037 7.29735L2.62318 7.06731L2.42908 6.92396C2.40396 6.90536 2.41689 6.86556 2.44814 6.86528L2.68943 6.86345L2.76576 6.63454C2.7756 6.60489 2.81752 6.60489 2.8274 6.63454Z" fill="#F5F5F5"/>
<path id="Vector_22" d="M2.8274 7.83205L2.90373 8.06096L3.14501 8.06279C3.17626 8.06307 3.18919 8.10291 3.16408 8.12147L2.96998 8.26483L3.04279 8.49487C3.05224 8.52463 3.0183 8.54932 2.99287 8.53112L2.79658 8.3908L2.60029 8.53112C2.57486 8.54928 2.54099 8.52463 2.55037 8.49487L2.62318 8.26483L2.42908 8.12147C2.40396 8.10295 2.41689 8.06307 2.44814 8.06279L2.68943 8.06096L2.76576 7.83205C2.7756 7.8024 2.81752 7.8024 2.8274 7.83205Z" fill="#F5F5F5"/>
<path id="Vector_23" d="M2.8274 9.02953L2.90373 9.25844L3.14501 9.26027C3.17626 9.26055 3.18919 9.30035 3.16408 9.31894L2.96998 9.4623L3.04279 9.69234C3.05224 9.72211 3.0183 9.7468 2.99287 9.72859L2.79658 9.58828L2.60029 9.72859C2.57486 9.74676 2.54099 9.72211 2.55037 9.69234L2.62318 9.4623L2.42908 9.31894C2.40396 9.30035 2.41689 9.26055 2.44814 9.26027L2.68943 9.25844L2.76576 9.02953C2.7756 8.99992 2.81752 8.99992 2.8274 9.02953Z" fill="#F5F5F5"/>
<path id="Vector_24" d="M3.75691 4.82689L3.83324 5.0558L4.07453 5.05764C4.10578 5.05791 4.11871 5.09776 4.09359 5.11631L3.89949 5.25967L3.9723 5.48971C3.98176 5.51948 3.94781 5.54417 3.92238 5.52596L3.72609 5.38565L3.5298 5.52596C3.50437 5.54413 3.47051 5.51948 3.47988 5.48971L3.55269 5.25967L3.35859 5.11631C3.33347 5.09772 3.3464 5.05791 3.37765 5.05764L3.61894 5.0558L3.69527 4.82689C3.70508 4.79729 3.74703 4.79729 3.75691 4.82689Z" fill="#F5F5F5"/>
<path id="Vector_25" d="M3.75691 6.02419L3.83324 6.2531L4.07453 6.25493C4.10578 6.25521 4.11871 6.29505 4.09359 6.3136L3.89949 6.45696L3.9723 6.687C3.98176 6.71677 3.94781 6.74146 3.92238 6.72325L3.72609 6.58294L3.5298 6.72325C3.50437 6.74142 3.47051 6.71681 3.47988 6.687L3.55269 6.45696L3.35859 6.3136C3.33347 6.29509 3.3464 6.25521 3.37765 6.25493L3.61894 6.2531L3.69527 6.02419C3.70508 5.99454 3.74703 5.99454 3.75691 6.02419Z" fill="#F5F5F5"/>
<path id="Vector_26" d="M3.75691 7.2217L3.83324 7.45061L4.07453 7.45244C4.10578 7.45272 4.11871 7.49252 4.09359 7.51111L3.89949 7.65447L3.9723 7.88451C3.98176 7.91428 3.94781 7.93897 3.92238 7.92076L3.72609 7.78045L3.5298 7.92076C3.50437 7.93893 3.47051 7.91428 3.47988 7.88451L3.55269 7.65447L3.35859 7.51111C3.33347 7.49252 3.3464 7.45272 3.37765 7.45244L3.61894 7.45061L3.69527 7.2217C3.70508 7.19205 3.74703 7.19205 3.75691 7.2217Z" fill="#F5F5F5"/>
<path id="Vector_27" d="M3.75691 8.41918L3.83324 8.64809L4.07453 8.64992C4.10578 8.65019 4.11871 8.69 4.09359 8.70859L3.89949 8.85195L3.9723 9.08199C3.98176 9.11176 3.94781 9.13644 3.92238 9.11824L3.72609 8.97793L3.5298 9.11824C3.50437 9.13644 3.47051 9.11176 3.47988 9.08199L3.55269 8.85195L3.35859 8.70859C3.33347 8.69 3.3464 8.65019 3.37765 8.64992L3.61894 8.64809L3.69527 8.41918C3.70508 8.38957 3.74703 8.38957 3.75691 8.41918Z" fill="#F5F5F5"/>
<path id="Vector_28" d="M4.68633 4.23976L4.76266 4.46867L5.00395 4.4705C5.0352 4.47078 5.04813 4.51062 5.02301 4.52917L4.82891 4.67249L4.90173 4.90253C4.91118 4.9323 4.87723 4.95699 4.8518 4.93878L4.65547 4.79851L4.45919 4.93882C4.43376 4.95703 4.39989 4.93234 4.40926 4.90257L4.48208 4.67253L4.28797 4.52921C4.26286 4.51062 4.27579 4.47078 4.30704 4.47054L4.54833 4.46871L4.62465 4.2398C4.63454 4.21011 4.67645 4.21011 4.68633 4.23976Z" fill="#F5F5F5"/>
<path id="Vector_29" d="M4.68633 5.43725L4.76266 5.66615L5.00395 5.66799C5.0352 5.66826 5.04813 5.70807 5.02301 5.72666L4.82891 5.87002L4.90173 6.10006C4.91118 6.12982 4.87723 6.15451 4.8518 6.13631L4.65547 5.99599L4.45919 6.13631C4.43376 6.15447 4.39989 6.12982 4.40926 6.10006L4.48208 5.87002L4.28797 5.72666C4.26286 5.70807 4.27579 5.66826 4.30704 5.66799L4.54833 5.66615L4.62465 5.43725C4.63454 5.40764 4.67645 5.40764 4.68633 5.43725Z" fill="#F5F5F5"/>
<path id="Vector_30" d="M4.68633 6.63455L4.76266 6.86345L5.00395 6.86529C5.0352 6.86556 5.04813 6.90537 5.02301 6.92396L4.82891 7.06732L4.90173 7.29736C4.91118 7.32712 4.87723 7.35181 4.8518 7.33361L4.65547 7.19326L4.45919 7.33357C4.43376 7.35173 4.39989 7.32709 4.40926 7.29732L4.48208 7.06728L4.28797 6.92392C4.26286 6.90533 4.27579 6.86552 4.30704 6.86525L4.54833 6.86341L4.62465 6.63451C4.63454 6.6049 4.67645 6.6049 4.68633 6.63455Z" fill="#F5F5F5"/>
<path id="Vector_31" d="M4.68633 7.83205L4.76266 8.06096L5.00395 8.06279C5.0352 8.06307 5.04813 8.10291 5.02301 8.12147L4.82891 8.26483L4.90173 8.49487C4.91118 8.52463 4.87723 8.54932 4.8518 8.53112L4.65547 8.3908L4.45919 8.53112C4.43376 8.54928 4.39989 8.52463 4.40926 8.49487L4.48208 8.26483L4.28797 8.12147C4.26286 8.10295 4.27579 8.06307 4.30704 8.06279L4.54833 8.06096L4.62465 7.83205C4.63454 7.8024 4.67645 7.8024 4.68633 7.83205Z" fill="#F5F5F5"/>
<path id="Vector_32" d="M4.68633 9.02953L4.76266 9.25844L5.00395 9.26027C5.0352 9.26055 5.04813 9.30035 5.02301 9.31894L4.82891 9.4623L4.90173 9.69234C4.91118 9.72211 4.87723 9.7468 4.8518 9.72859L4.65547 9.58828L4.45919 9.72859C4.43376 9.74676 4.39989 9.72211 4.40926 9.69234L4.48208 9.4623L4.28797 9.31894C4.26286 9.30035 4.27579 9.26055 4.30704 9.26027L4.54833 9.25844L4.62465 9.02953C4.63454 8.99992 4.67645 8.99992 4.68633 9.02953Z" fill="#F5F5F5"/>
<path id="Vector_33" d="M5.61579 4.82689L5.69212 5.0558L5.93341 5.05764C5.96466 5.05791 5.97759 5.09776 5.95247 5.11631L5.75837 5.25967L5.83118 5.48971C5.84064 5.51948 5.80669 5.54417 5.78126 5.52596L5.58497 5.38565L5.38869 5.52596C5.36326 5.54413 5.32939 5.51948 5.33877 5.48971L5.41158 5.25967L5.21748 5.11631C5.19236 5.09772 5.20529 5.05791 5.23654 5.05764L5.47783 5.0558L5.55415 4.82689C5.56404 4.79729 5.60591 4.79729 5.61579 4.82689Z" fill="#F5F5F5"/>
<path id="Vector_34" d="M5.61579 6.02419L5.69212 6.2531L5.93341 6.25493C5.96466 6.25521 5.97759 6.29505 5.95247 6.3136L5.75837 6.45696L5.83118 6.687C5.84064 6.71677 5.80669 6.74146 5.78126 6.72325L5.58497 6.58294L5.38869 6.72325C5.36326 6.74142 5.32939 6.71681 5.33877 6.687L5.41158 6.45696L5.21748 6.3136C5.19236 6.29509 5.20529 6.25521 5.23654 6.25493L5.47783 6.2531L5.55415 6.02419C5.56404 5.99454 5.60591 5.99454 5.61579 6.02419Z" fill="#F5F5F5"/>
<path id="Vector_35" d="M5.61579 7.2217L5.69212 7.45061L5.93341 7.45244C5.96466 7.45272 5.97759 7.49252 5.95247 7.51111L5.75837 7.65447L5.83118 7.88451C5.84064 7.91428 5.80669 7.93897 5.78126 7.92076L5.58497 7.78045L5.38869 7.92076C5.36326 7.93893 5.32939 7.91428 5.33877 7.88451L5.41158 7.65447L5.21748 7.51111C5.19236 7.49252 5.20529 7.45272 5.23654 7.45244L5.47783 7.45061L5.55415 7.2217C5.56404 7.19205 5.60591 7.19205 5.61579 7.2217Z" fill="#F5F5F5"/>
<path id="Vector_36" d="M5.61579 8.41918L5.69212 8.64809L5.93341 8.64992C5.96466 8.65019 5.97759 8.69 5.95247 8.70859L5.75837 8.85195L5.83118 9.08199C5.84064 9.11176 5.80669 9.13644 5.78126 9.11824L5.58497 8.97793L5.38869 9.11824C5.36326 9.13644 5.32939 9.11176 5.33877 9.08199L5.41158 8.85195L5.21748 8.70859C5.19236 8.69 5.20529 8.65019 5.23654 8.64992L5.47783 8.64809L5.55415 8.41918C5.56404 8.38957 5.60591 8.38957 5.61579 8.41918Z" fill="#F5F5F5"/>
<path id="Vector_37" d="M6.54484 4.23977L6.62116 4.46867L6.86245 4.47051C6.8937 4.47078 6.90663 4.51063 6.88151 4.52918L6.68741 4.6725L6.76023 4.90254C6.76968 4.93231 6.73573 4.95699 6.7103 4.93879L6.51402 4.79848L6.31773 4.93879C6.2923 4.95699 6.25843 4.93231 6.26781 4.90254L6.34062 4.6725L6.14652 4.52918C6.1214 4.51059 6.13433 4.47074 6.16558 4.47051L6.40687 4.46867L6.4832 4.23977C6.493 4.21012 6.53495 4.21012 6.54484 4.23977Z" fill="#F5F5F5"/>
<path id="Vector_38" d="M6.54484 5.43725L6.62116 5.66615L6.86245 5.66799C6.8937 5.66826 6.90663 5.70807 6.88151 5.72666L6.68741 5.87002L6.76023 6.10006C6.76968 6.12982 6.73573 6.15451 6.7103 6.13631L6.51402 5.99599L6.31773 6.13631C6.2923 6.15447 6.25843 6.12982 6.26781 6.10006L6.34062 5.87002L6.14652 5.72666C6.1214 5.70807 6.13433 5.66826 6.16558 5.66799L6.40687 5.66615L6.4832 5.43725C6.493 5.40764 6.53495 5.40764 6.54484 5.43725Z" fill="#F5F5F5"/>
<path id="Vector_39" d="M6.54484 6.63454L6.62116 6.86345L6.86245 6.86528C6.8937 6.86556 6.90663 6.90536 6.88151 6.92396L6.68741 7.06731L6.76023 7.29735C6.76968 7.32712 6.73573 7.35181 6.7103 7.3336L6.51402 7.19329L6.31773 7.3336C6.2923 7.35177 6.25843 7.32716 6.26781 7.29735L6.34062 7.06731L6.14652 6.92396C6.1214 6.90536 6.13433 6.86556 6.16558 6.86528L6.40687 6.86345L6.4832 6.63454C6.493 6.60489 6.53495 6.60489 6.54484 6.63454Z" fill="#F5F5F5"/>
<path id="Vector_40" d="M6.54484 7.83205L6.62116 8.06096L6.86245 8.06279C6.8937 8.06307 6.90663 8.10291 6.88151 8.12147L6.68741 8.26483L6.76023 8.49487C6.76968 8.52463 6.73573 8.54932 6.7103 8.53112L6.51402 8.3908L6.31773 8.53112C6.2923 8.54928 6.25843 8.52463 6.26781 8.49487L6.34062 8.26483L6.14652 8.12147C6.1214 8.10295 6.13433 8.06307 6.16558 8.06279L6.40687 8.06096L6.4832 7.83205C6.493 7.8024 6.53495 7.8024 6.54484 7.83205Z" fill="#F5F5F5"/>
<path id="Vector_41" d="M6.54484 9.02953L6.62116 9.25844L6.86245 9.26027C6.8937 9.26055 6.90663 9.30035 6.88151 9.31894L6.68741 9.4623L6.76023 9.69234C6.76968 9.72211 6.73573 9.7468 6.7103 9.72859L6.51402 9.58828L6.31773 9.72859C6.2923 9.74676 6.25843 9.72211 6.26781 9.69234L6.34062 9.4623L6.14652 9.31894C6.1214 9.30035 6.13433 9.26055 6.16558 9.26027L6.40687 9.25844L6.4832 9.02953C6.493 8.99992 6.53495 8.99992 6.54484 9.02953Z" fill="#F5F5F5"/>
<path id="Vector_42" d="M7.47428 4.82689L7.55061 5.0558L7.7919 5.05764C7.82315 5.05791 7.83608 5.09776 7.81096 5.11631L7.61686 5.25967L7.68967 5.48971C7.69913 5.51948 7.66518 5.54417 7.63975 5.52596L7.44346 5.38565L7.24717 5.52596C7.22174 5.54413 7.18788 5.51948 7.19725 5.48971L7.27006 5.25967L7.07596 5.11631C7.05085 5.09772 7.06378 5.05791 7.09503 5.05764L7.33631 5.0558L7.41264 4.82689C7.42249 4.79729 7.4644 4.79729 7.47428 4.82689Z" fill="#F5F5F5"/>
<path id="Vector_43" d="M7.47428 6.02419L7.55061 6.2531L7.7919 6.25493C7.82315 6.25521 7.83608 6.29505 7.81096 6.3136L7.61686 6.45696L7.68967 6.687C7.69913 6.71677 7.66518 6.74146 7.63975 6.72325L7.44346 6.58294L7.24717 6.72325C7.22174 6.74142 7.18788 6.71681 7.19725 6.687L7.27006 6.45696L7.07596 6.3136C7.05085 6.29509 7.06378 6.25521 7.09503 6.25493L7.33631 6.2531L7.41264 6.02419C7.42249 5.99454 7.4644 5.99454 7.47428 6.02419Z" fill="#F5F5F5"/>
<path id="Vector_44" d="M7.47428 7.2217L7.55061 7.45061L7.7919 7.45244C7.82315 7.45272 7.83608 7.49252 7.81096 7.51111L7.61686 7.65447L7.68967 7.88451C7.69913 7.91428 7.66518 7.93897 7.63975 7.92076L7.44346 7.78045L7.24717 7.92076C7.22174 7.93893 7.18788 7.91428 7.19725 7.88451L7.27006 7.65447L7.07596 7.51111C7.05085 7.49252 7.06378 7.45272 7.09503 7.45244L7.33631 7.45061L7.41264 7.2217C7.42249 7.19205 7.4644 7.19205 7.47428 7.2217Z" fill="#F5F5F5"/>
<path id="Vector_45" d="M7.47428 8.41918L7.55061 8.64809L7.7919 8.64992C7.82315 8.65019 7.83608 8.69 7.81096 8.70859L7.61686 8.85195L7.68967 9.08199C7.69913 9.11176 7.66518 9.13644 7.63975 9.11824L7.44346 8.97793L7.24717 9.11824C7.22174 9.13644 7.18788 9.11176 7.19725 9.08199L7.27006 8.85195L7.07596 8.70859C7.05085 8.69 7.06378 8.65019 7.09503 8.64992L7.33631 8.64809L7.41264 8.41918C7.42249 8.38957 7.4644 8.38957 7.47428 8.41918Z" fill="#F5F5F5"/>
<path id="Vector_46" d="M8.40378 4.23977L8.48011 4.46867L8.7214 4.47051C8.75265 4.47078 8.76558 4.51063 8.74046 4.52918L8.54636 4.6725L8.61917 4.90254C8.62863 4.93231 8.59468 4.95699 8.56925 4.93879L8.37296 4.79848L8.17667 4.93879C8.15124 4.95699 8.11738 4.93231 8.12675 4.90254L8.19956 4.6725L8.00546 4.52918C7.98034 4.51059 7.99327 4.47074 8.02452 4.47051L8.26581 4.46867L8.34214 4.23977C8.35199 4.21012 8.39386 4.21012 8.40378 4.23977Z" fill="#F5F5F5"/>
<path id="Vector_47" d="M8.40378 5.43725L8.48011 5.66615L8.7214 5.66799C8.75265 5.66826 8.76558 5.70807 8.74046 5.72666L8.54636 5.87002L8.61917 6.10006C8.62863 6.12982 8.59468 6.15451 8.56925 6.13631L8.37296 5.99599L8.17667 6.13631C8.15124 6.15447 8.11738 6.12982 8.12675 6.10006L8.19956 5.87002L8.00546 5.72666C7.98034 5.70807 7.99327 5.66826 8.02452 5.66799L8.26581 5.66615L8.34214 5.43725C8.35199 5.40764 8.39386 5.40764 8.40378 5.43725Z" fill="#F5F5F5"/>
<path id="Vector_48" d="M8.40378 6.63454L8.48011 6.86345L8.7214 6.86528C8.75265 6.86556 8.76558 6.90536 8.74046 6.92396L8.54636 7.06731L8.61917 7.29735C8.62863 7.32712 8.59468 7.35181 8.56925 7.3336L8.37296 7.19329L8.17667 7.3336C8.15124 7.35177 8.11738 7.32716 8.12675 7.29735L8.19956 7.06731L8.00546 6.92396C7.98034 6.90536 7.99327 6.86556 8.02452 6.86528L8.26581 6.86345L8.34214 6.63454C8.35199 6.60489 8.39386 6.60489 8.40378 6.63454Z" fill="#F5F5F5"/>
<path id="Vector_49" d="M8.40378 7.83205L8.48011 8.06096L8.7214 8.06279C8.75265 8.06307 8.76558 8.10291 8.74046 8.12147L8.54636 8.26483L8.61917 8.49487C8.62863 8.52463 8.59468 8.54932 8.56925 8.53112L8.37296 8.3908L8.17667 8.53112C8.15124 8.54928 8.11738 8.52463 8.12675 8.49487L8.19956 8.26483L8.00546 8.12147C7.98034 8.10295 7.99327 8.06307 8.02452 8.06279L8.26581 8.06096L8.34214 7.83205C8.35199 7.8024 8.39386 7.8024 8.40378 7.83205Z" fill="#F5F5F5"/>
<path id="Vector_50" d="M8.40378 9.02953L8.48011 9.25844L8.7214 9.26027C8.75265 9.26055 8.76558 9.30035 8.74046 9.31894L8.54636 9.4623L8.61917 9.69234C8.62863 9.72211 8.59468 9.7468 8.56925 9.72859L8.37296 9.58828L8.17667 9.72859C8.15124 9.74676 8.11738 9.72211 8.12675 9.69234L8.19956 9.4623L8.00546 9.31894C7.98034 9.30035 7.99327 9.26055 8.02452 9.26027L8.26581 9.25844L8.34214 9.02953C8.35199 8.99992 8.39386 8.99992 8.40378 9.02953Z" fill="#F5F5F5"/>
</g>
</g>
</svg>
